<?xml version="1.0" standalone="no"?>
<!DOCTYPE svg PUBLIC "-//W3C//DTD SVG 1.1//EN" "http://www.w3.org/Graphics/SVG/1.1/DTD/svg11.dtd" >
<svg xmlns="http://www.w3.org/2000/svg" xmlns:xlink="http://www.w3.org/1999/xlink" version="1.1">
<metadata></metadata>
<defs>
<font id="helvetica_neue_lt_pro43LtEx" horiz-adv-x="1368" >
<font-face units-per-em="2048" ascent="1462" descent="-586" />
<missing-glyph horiz-adv-x="569" />
<glyph unicode="&#xfb01;" horiz-adv-x="1024" d="M-12 950v115h229v141q0 148 72 208.5t227 60.5q100 0 170 -9v-127q-70 9 -141 9q-103 0 -139.5 -33t-36.5 -125v-125h301v-115h-301l2 -950h-152l-2 950h-229zM758 1065h151l2 -1065h-151zM758 1249v226h151v-226h-151z" />
<glyph unicode="&#xfb02;" horiz-adv-x="1024" d="M-12 950v115h229v141q0 148 72 208.5t227 60.5q100 0 170 -9v-127q-70 9 -141 9q-103 0 -139.5 -33t-36.5 -125v-125h301v-115h-301l2 -950h-152l-2 950h-229zM758 1475h151l2 -1475h-151z" />
<glyph horiz-adv-x="1024" />
<glyph horiz-adv-x="1024" />
<glyph horiz-adv-x="682" />
<glyph unicode="&#xd;" horiz-adv-x="0" />
<glyph unicode=" "  horiz-adv-x="569" />
<glyph unicode="&#x09;" horiz-adv-x="569" />
<glyph unicode="&#xa0;" horiz-adv-x="569" />
<glyph unicode="!" horiz-adv-x="606" d="M213 225h176l2 -225h-176zM219 1075v387h164v-387l-37 -696h-90z" />
<glyph unicode="&#x22;" horiz-adv-x="833" d="M205 950v512h114v-512h-114zM510 950v512h115v-512h-115z" />
<glyph unicode="#" d="M166 463v90h246l45 315h-234v90h246l66 463h102l-66 -463h291l66 463h102l-65 -463h233v-90h-246l-45 -315h234v-90h-246l-64 -463h-102l64 463h-291l-64 -463h-102l63 463h-233zM514 553h291l45 315h-291z" />
<glyph unicode="$" d="M45 469h152q0 -95 33 -164.5t94 -110t134.5 -61.5t168.5 -27v560q-70 11 -116.5 19.5t-108.5 25t-102.5 34t-84 46t-69 63t-42 83t-16.5 107.5q0 86 30 155t81 114t121 76t146 45t161 16v125h114v-125q85 -5 159 -21.5t143 -49.5t118.5 -81.5t80.5 -121t34 -162.5h-152 q-5 63 -27 112t-56.5 81t-83 54.5t-100.5 33.5t-116 16v-523q311 -41 444.5 -129.5t133.5 -250.5q0 -98 -34 -175t-89.5 -125t-132.5 -80t-155.5 -45.5t-166.5 -15.5v-198h-114v198q-582 28 -582 502zM252 1059q0 -58 28.5 -101.5t84 -71.5t116 -44.5t146.5 -30.5v500 q-177 -6 -276 -69t-99 -183zM741 106q82 0 153.5 14.5t131.5 45.5t94.5 86t34.5 129q0 107 -96.5 173.5t-317.5 94.5v-543z" />
<glyph unicode="%" horiz-adv-x="1972" d="M125 1053q0 190 99 293.5t259 103.5t259.5 -103.5t99.5 -293.5t-99.5 -294t-259.5 -104q-159 0 -258.5 103.5t-99.5 294.5zM252 1053q0 -140 60.5 -217.5t170.5 -77.5t171 77.5t61 217.5t-61 217.5t-171 77.5t-170.5 -77.5t-60.5 -217.5zM434 -33l975 1483h121 l-975 -1483h-121zM1126 365q0 190 99.5 293.5t259.5 103.5t259 -103.5t99 -293.5q0 -191 -99.5 -294.5t-258.5 -103.5q-160 0 -259.5 104t-99.5 294zM1253 365q0 -140 61 -217.5t171 -77.5t170.5 77.5t60.5 217.5t-60.5 217t-170.5 77t-171 -77t-61 -217z" />
<glyph unicode="&#x26;" horiz-adv-x="1593" d="M143 403q0 150 94 248.5t312 186.5q-94 84 -139 155t-45 166q0 134 98 218.5t258 84.5q95 0 167 -27t111.5 -71.5t58.5 -94.5t19 -104q0 -67 -25 -124t-71.5 -99.5t-95.5 -72.5t-113 -58l449 -424q29 40 50 115.5t27 130.5h140q0 -66 -30.5 -161t-86.5 -177l315 -295 h-206l-193 182q-79 -99 -222.5 -157t-318.5 -58q-269 0 -411 119.5t-142 316.5zM295 395q0 -126 104 -213.5t306 -87.5q136 0 238 38.5t198 137.5l-506 480q-176 -67 -258 -150.5t-82 -204.5zM504 1165q0 -51 32.5 -106t145.5 -168q256 109 256 266q0 78 -56.5 128 t-172.5 50q-82 0 -143.5 -47.5t-61.5 -122.5z" />
<glyph unicode="'" horiz-adv-x="569" d="M225 950v512h115v-512h-115z" />
<glyph unicode="(" horiz-adv-x="720" d="M166 537q0 149 38 298.5t86.5 251.5t109 195t90 128.5t45.5 51.5h114q-46 -65 -71 -102.5t-71.5 -114t-74 -144.5t-57.5 -158t-44 -192.5t-14 -213.5q0 -96 12.5 -188t29.5 -164t48 -149t55 -127t64.5 -115.5t62 -96.5t60.5 -86h-114q-15 15 -45.5 51.5t-90.5 129 t-108.5 195t-86.5 252t-38 298.5z" />
<glyph unicode=")" horiz-adv-x="720" d="M68 1462h114q16 -16 45.5 -51.5t90 -128.5t109 -195t86.5 -251.5t38 -298.5t-38 -298.5t-86.5 -252t-108.5 -195t-90.5 -129t-45.5 -51.5h-112q39 56 59.5 86.5t61 96.5t64 115.5t54.5 127t48 149.5t29.5 164t12.5 187q0 96 -12.5 188t-29.5 164t-48 149t-55 127t-64 115 t-61.5 96t-60.5 86z" />
<glyph unicode="*" horiz-adv-x="872" d="M76 1186l41 100l260 -98v274h115v-274l260 98l41 -100l-271 -103l189 -211l-78 -73l-199 223l-198 -223l-78 73l188 211z" />
<glyph unicode="+" horiz-adv-x="1228" d="M94 467v102h467v467h103v-467h466v-102h-466l2 -467h-103l-2 467h-467z" />
<glyph unicode="," horiz-adv-x="569" d="M176 -209q57 27 74.5 74t19.5 135h-73l-2 225h176v-229q0 -230 -195 -283v78z" />
<glyph unicode="-" horiz-adv-x="909" d="M139 485v152h623v-152h-623z" />
<glyph unicode="." horiz-adv-x="569" d="M195 225h176l2 -225h-176z" />
<glyph unicode="/" horiz-adv-x="833" d="M6 -37l703 1536h114l-702 -1536h-115z" />
<glyph unicode="0" d="M84 707q0 190 43.5 334t124 232.5t188.5 132.5t242 44t242 -44t188.5 -132.5t124 -232.5t43.5 -334q0 -189 -43.5 -332t-124 -231.5t-188.5 -132.5t-242 -44t-242 44t-188.5 132.5t-124 231.5t-43.5 332zM236 707q0 -111 14 -201.5t46.5 -168.5t83 -130.5t127 -82.5 t175.5 -30t175.5 30t127 82.5t83 130.5t46.5 168.5t14 201.5q0 141 -23 250t-73.5 193t-138.5 128.5t-211 44.5t-211 -44.5t-138.5 -128.5t-73.5 -193t-23 -250z" />
<glyph unicode="1" horiz-adv-x="909" d="M39 1065v115h100q65 0 107.5 3.5t83.5 13.5t66.5 28t48 48.5t36.5 73t25 103.5h127l2 -1450h-152l-2 1065h-442z" />
<glyph unicode="2" d="M106 0q6 58 16.5 101.5t42 104t83 114t143 119.5t217.5 132q108 56 171.5 93.5t121.5 79.5t86 80.5t44 85t16 104.5q0 155 -94.5 232t-268.5 77q-94 0 -165 -22.5t-113.5 -58.5t-69.5 -88.5t-37 -104t-12 -113.5h-152q0 262 144.5 388t406.5 126q112 0 201.5 -26 t146.5 -68.5t95 -100.5t53.5 -118t15.5 -125q0 -72 -19 -133t-47 -104t-78.5 -86t-95 -71t-114.5 -67q-312 -170 -418 -247.5t-133 -164.5h921l3 -139h-1111z" />
<glyph unicode="3" d="M100 461h152q7 -195 117.5 -281t324.5 -86q88 0 158 17.5t113.5 46.5t72.5 69t40.5 82t11.5 88q0 70 -21 122.5t-55.5 84t-86 51t-106 26.5t-123.5 7h-123v127h99q179 0 269.5 54t90.5 188q0 131 -93 198.5t-251 67.5q-209 0 -305 -93t-96 -257h-152q2 100 35.5 184 t98.5 150.5t172.5 104.5t246.5 38q76 0 146 -13t134.5 -43t112 -74.5t75.5 -112t28 -150.5q0 -68 -29 -129t-90.5 -106t-146.5 -56v-4q139 -12 230 -108.5t91 -252.5q0 -117 -44.5 -203t-124.5 -135.5t-179 -72.5t-221 -23q-280 0 -425 126t-147 368z" />
<glyph unicode="4" d="M84 356v140l776 954h133v-967h271v-127h-271l2 -356h-139l-2 356h-770zM236 483h618v754h-4z" />
<glyph unicode="5" d="M98 408h152q27 -158 127.5 -236t288.5 -78q186 0 300.5 93t114.5 276q0 174 -111.5 270t-314.5 96q-229 0 -368 -167l-142 6l144 749h854v-127h-740l-100 -469l4 -4q59 58 155 98.5t216 40.5q262 0 408.5 -134t146.5 -359q0 -47 -7.5 -93t-26.5 -96t-47.5 -93.5 t-74 -83.5t-102.5 -68t-136.5 -45t-172.5 -17q-261 0 -401.5 115.5t-166.5 325.5z" />
<glyph unicode="6" d="M111 659q0 181 34.5 324t104 248.5t183.5 162t265 56.5q103 0 188 -20.5t143.5 -55.5t99.5 -83t62 -100t26 -110h-152q-11 114 -103 178t-264 64q-144 0 -239.5 -61t-149.5 -202.5t-59 -369.5l4 -4q148 264 444 264q255 0 405 -129.5t150 -363.5q0 -119 -43.5 -213.5 t-120 -154t-176 -91t-215.5 -31.5q-587 0 -587 692zM287 463q0 -54 14 -105.5t46 -99.5t78.5 -84t117 -58t155.5 -22q173 0 288.5 99t115.5 266q0 157 -109 260.5t-295 103.5q-96 0 -170.5 -24.5t-119 -62t-73 -87.5t-38.5 -95t-10 -91z" />
<glyph unicode="7" horiz-adv-x="1214" d="M53 1278v139h1075v-139q-56 -51 -122.5 -129t-150.5 -202.5t-155.5 -263t-132 -320t-86.5 -363.5h-164q20 170 90 364t165.5 364t203 314t207.5 236h-930z" />
<glyph unicode="8" d="M96 395q0 297 342 379v4q-27 8 -40 12.5t-46.5 18.5t-53.5 27t-48 38t-44 52t-28 67t-12 86q0 42 9.5 82t31 83t61 79t94.5 65t137 45.5t183 16.5t183 -16.5t137 -45.5t94.5 -65t61 -79t31 -83t9.5 -82q0 -46 -12 -86t-28 -67t-44 -52t-48 -38t-53.5 -27t-46.5 -18.5 t-40 -12.5v-4q342 -82 342 -379q0 -44 -8 -86t-28 -85t-50 -80t-77 -70t-106 -56.5t-140 -37t-177 -13.5t-177 13.5t-140 37t-106 56.5t-77 70t-50 80t-28 85t-8 86zM248 395q0 -151 118.5 -226t315.5 -75t315.5 75t118.5 226q0 155 -121.5 234.5t-312.5 79.5t-312.5 -79.5 t-121.5 -234.5zM317 1071q0 -107 92.5 -171t272.5 -64t272.5 64t92.5 171q0 72 -31.5 123.5t-86 78.5t-115 38.5t-132.5 11.5t-132.5 -11.5t-115 -38.5t-86 -78.5t-31.5 -123.5z" />
<glyph unicode="9" d="M111 961q0 119 43.5 213.5t120 154t176 90.5t215.5 31q587 0 587 -692q0 -181 -34.5 -324t-104 -248.5t-183.5 -162t-265 -56.5q-103 0 -188 20.5t-143.5 55.5t-99.5 83t-62 100t-26 110h152q11 -114 103 -178t264 -64q109 0 188.5 34t137.5 108t88 196t34 295l-4 4 q-148 -264 -444 -264q-255 0 -405 130t-150 364zM262 958q0 -159 109 -261.5t295 -102.5q96 0 170.5 24.5t119 62t73 87.5t38.5 95t10 91q0 54 -14 105.5t-46 99.5t-78.5 84t-117 58t-155.5 22q-173 0 -288.5 -99t-115.5 -266z" />
<glyph unicode=":" horiz-adv-x="569" d="M195 225h176l2 -225h-176zM195 811v225h176v-225h-176z" />
<glyph unicode=";" horiz-adv-x="569" d="M174 -209q56 27 73.5 72.5t22.5 136.5h-73l-4 225h176v-229q0 -230 -195 -283v78zM193 811v225h176v-225h-176z" />
<glyph unicode="&#x3c;" horiz-adv-x="1228" d="M94 461v114l1036 478v-115l-909 -420l909 -420v-114z" />
<glyph unicode="=" horiz-adv-x="1228" d="M94 268v103h1036v-103h-1036zM94 666v102h1036v-102h-1036z" />
<glyph unicode="&#x3e;" horiz-adv-x="1228" d="M94 -16v114l910 420l-910 420v115l1036 -478v-114z" />
<glyph unicode="?" horiz-adv-x="1327" d="M109 1006q0 103 33.5 191.5t97.5 156t166.5 106.5t232.5 39q104 0 197 -25.5t168.5 -75t120 -132.5t44.5 -189q0 -70 -15.5 -122t-56 -100.5t-87.5 -86.5t-133 -98q-55 -39 -88 -66.5t-54 -50.5t-29.5 -51t-11 -52.5t-2.5 -70.5h-139q0 45 0.5 71t6.5 57t10 46t23 42 t31 39.5t49 44t63 51t85 63.5q95 71 126 104q71 77 71 180q0 128 -107 205.5t-272 77.5q-191 0 -282.5 -95t-96.5 -259h-151zM535 225h176l2 -225h-176z" />
<glyph unicode="@" horiz-adv-x="1638" d="M88 731q0 209 103 386t279.5 279.5t385.5 102.5q190 0 347.5 -82t250 -229t92.5 -328q0 -115 -43.5 -225.5t-111.5 -189t-152 -126t-164 -47.5q-59 0 -97 36t-38 106h-4q-128 -142 -277 -142q-127 0 -203.5 87.5t-76.5 218.5q0 108 37 216t100.5 195.5t159.5 142 t205 54.5q162 0 225 -174l49 137h115l-203 -610q-25 -84 -25 -123q0 -54 54 -54q82 0 164.5 81t133 199t50.5 224q0 119 -49 222.5t-130.5 172.5t-188 108.5t-220.5 39.5q-187 0 -341 -94.5t-239.5 -249.5t-85.5 -334q0 -184 89 -340t242.5 -247t334.5 -91q161 0 312.5 79.5 t232.5 209.5h115q-98 -173 -278.5 -276t-381.5 -103q-161 0 -304.5 61.5t-244.5 165.5t-160 245t-59 296zM506 588q0 -213 170 -213q75 0 145 52.5t116.5 130.5t74.5 164.5t28 158.5q0 104 -39.5 153t-128.5 49q-62 0 -120.5 -32t-102 -85t-76.5 -117.5t-50 -132.5t-17 -128 z" />
<glyph unicode="A" horiz-adv-x="1478" d="M-12 0l661 1462h176l666 -1462h-176l-197 444h-770l-196 -444h-164zM410 584h647l-322 727z" />
<glyph unicode="B" horiz-adv-x="1517" d="M133 1462h832q205 0 306 -101.5t101 -266.5q0 -112 -63.5 -198.5t-188.5 -115.5v-4q145 -23 227.5 -119.5t82.5 -238.5q0 -88 -29 -160t-76.5 -119t-111 -79t-129.5 -46t-136 -14h-813zM285 139h637q157 0 250.5 68t93.5 211q0 77 -23 131.5t-66.5 84t-96.5 42t-122 12.5 h-673v-549zM285 827h600q163 0 249.5 60t86.5 200q0 236 -285 236h-651v-496z" />
<glyph unicode="C" horiz-adv-x="1669" d="M82 731q0 106 25 209.5t84.5 205.5t146.5 179.5t222 125.5t300 48q98 0 191.5 -17.5t183 -58.5t159 -101t117.5 -150.5t60 -202.5h-152q-16 101 -68 178t-129.5 122.5t-168.5 68t-193 22.5q-137 0 -249 -39t-193.5 -115.5t-126.5 -197t-45 -277.5q0 -101 21 -191 t68.5 -171t117 -139.5t174 -93t233.5 -34.5q253 0 393.5 118.5t178.5 336.5h151q-12 -123 -68.5 -231t-147.5 -189t-222 -127.5t-285 -46.5q-357 0 -567.5 208t-210.5 560z" />
<glyph unicode="D" horiz-adv-x="1593" d="M133 1462h711q316 0 481.5 -191.5t165.5 -539.5q0 -156 -40.5 -288.5t-117 -231.5t-196 -155t-269.5 -56h-733zM285 139h553q82 0 152 18t133 61.5t107.5 110t70.5 169t26 233.5q0 294 -119.5 443t-369.5 149h-553v-1184z" />
<glyph unicode="E" horiz-adv-x="1402" d="M158 1462h1163v-139h-1012v-496h975v-139h-975v-549h1028l2 -139h-1179z" />
<glyph unicode="F" horiz-adv-x="1251" d="M133 1462h1096v-139h-944v-496h897v-139h-897l2 -688h-152z" />
<glyph unicode="G" horiz-adv-x="1744" d="M92 731q0 165 55 306.5t154.5 243.5t247 160t325.5 58q149 0 276.5 -40t216 -109t144 -159t70.5 -192h-164q-44 179 -190 270t-353 91q-296 0 -457 -168t-161 -461q0 -299 150.5 -464t439.5 -165q538 0 622 512h-536v140h676l2 -754h-117l-23 276h-4 q-114 -164 -256 -238.5t-352 -74.5q-183 0 -328.5 55.5t-241 156.5t-146 242.5t-50.5 313.5z" />
<glyph unicode="H" horiz-adv-x="1630" d="M133 1462h152v-618h1056v618h152l2 -1462h-152l-2 705h-1056l2 -705h-152z" />
<glyph unicode="I" horiz-adv-x="454" d="M150 1462h151l2 -1462h-151z" />
<glyph unicode="J" horiz-adv-x="1138" d="M49 479h152v-53v-6q0 -330 323 -330q80 0 137 16.5t101.5 56t66 111.5t21.5 177v1011h151v-1052q0 -205 -121.5 -326t-363.5 -121q-74 0 -136 12t-106.5 31.5t-80.5 50.5t-59 61t-40 71.5t-25.5 74.5t-13 77t-5.5 72t-1 66z" />
<glyph unicode="K" horiz-adv-x="1517" d="M158 1462h151v-790l944 790h220l-725 -604l776 -858h-215l-680 756l-320 -262l2 -494h-151z" />
<glyph unicode="L" horiz-adv-x="1214" d="M133 1462h152v-1323h927l2 -139h-1079z" />
<glyph unicode="M" horiz-adv-x="2009" d="M133 1462h221l652 -1272l651 1272h215l2 -1462h-152l-2 1264h-4l-643 -1264h-139l-645 1266h-4l2 -1266h-152z" />
<glyph unicode="N" horiz-adv-x="1630" d="M133 1462h182l1022 -1249h4v1249h152l2 -1462h-176l-1030 1249h-4l2 -1249h-152z" />
<glyph unicode="O" horiz-adv-x="1744" d="M76 731q0 151 42.5 277.5t117 216t175.5 152t217 92.5t242 30t242.5 -30t217.5 -92.5t175 -152t117 -216t43 -277.5t-43 -277.5t-117 -216t-175 -152t-217.5 -92.5t-242.5 -30t-242 30t-217 92.5t-175.5 152t-117 216t-42.5 277.5zM240 731q0 -129 34.5 -235t94 -178 t140.5 -121.5t171.5 -72t189.5 -22.5t189.5 22.5t171.5 72t140.5 121.5t94.5 178t35 235t-35 235t-94.5 178t-140.5 121.5t-171.5 72t-189.5 22.5t-189.5 -22.5t-171.5 -72t-140.5 -121.5t-94 -178t-34.5 -235z" />
<glyph unicode="P" horiz-adv-x="1441" d="M158 1462h788q70 0 132.5 -14t119.5 -46t98 -79.5t65.5 -120t24.5 -162.5q0 -209 -130 -317.5t-377 -108.5h-570l2 -614h-151zM309 754h586q180 0 254 73.5t74 212.5q0 155 -77.5 219t-219.5 64h-617v-569z" />
<glyph unicode="Q" horiz-adv-x="1744" d="M76 731q0 151 42.5 277.5t117 216t175.5 152t217 92.5t242 30t242.5 -30t217.5 -92.5t175 -152t117 -216t43 -277.5q0 -196 -68.5 -345t-191.5 -245l219 -170l-80 -100l-252 195q-179 -103 -422 -103q-126 0 -242 30t-217 92.5t-175.5 152t-117 216t-42.5 277.5zM240 731 q0 -129 34.5 -235t94 -178t140.5 -121.5t171.5 -72t189.5 -22.5q163 0 293 62l-190 147l80 101l229 -176q219 164 219 495q0 129 -35 235t-94.5 178t-140.5 121.5t-171.5 72t-189.5 22.5t-189.5 -22.5t-171.5 -72t-140.5 -121.5t-94 -178t-34.5 -235z" />
<glyph unicode="R" horiz-adv-x="1517" d="M158 1462h796q78 0 145 -11.5t129.5 -39.5t106 -72t69.5 -113.5t26 -158.5q0 -123 -76 -223t-211 -131v-4q76 -12 126 -42.5t78 -84.5t40 -118t16 -161q13 -195 29 -254q10 -37 24 -49h-164q-38 38 -41 299q-4 192 -83 268t-271 76h-588l2 -643h-151zM309 782h641 q66 0 120 13.5t99.5 44.5t71 88.5t25.5 138.5q0 76 -26.5 129t-73 79.5t-95 37t-106.5 10.5h-656v-541z" />
<glyph unicode="S" d="M45 483h152q10 -111 51 -187.5t111 -118t154 -58.5t196 -17q89 0 163.5 14t140.5 45t104 90.5t38 141.5q0 51 -16 90.5t-55.5 68t-74 47t-103.5 35t-109 24t-124 20.5q-33 5 -50 8q-276 43 -405.5 131t-129.5 258q0 93 33 166.5t88 121t131 79t156.5 44.5t169.5 13 q94 0 177.5 -13.5t163 -46.5t137 -84t93.5 -130.5t39 -180.5h-152q-8 91 -47 154.5t-103.5 98t-139 49t-168.5 14.5q-182 0 -298 -69t-116 -189q0 -47 14 -83.5t47 -64.5t72 -48.5t106 -38.5t131 -30.5t164 -29.5q77 -13 133 -25t122.5 -32t112 -48t85.5 -66.5t60 -93 t20 -122.5q0 -87 -25 -158.5t-70 -120.5t-102.5 -84.5t-128 -55.5t-140 -29t-144.5 -9q-115 0 -209.5 16t-177.5 54t-140.5 97t-93.5 148t-43 205z" />
<glyph unicode="T" horiz-adv-x="1290" d="M-4 1323v139h1296v-139h-573l2 -1323h-152l-2 1323h-571z" />
<glyph unicode="U" horiz-adv-x="1593" d="M141 565v897h152v-897q0 -111 28.5 -195t74.5 -134t113.5 -81t135.5 -42t150 -11t150 11t135.5 42t113 81t74 134t28.5 195v897h152v-897q0 -64 -5.5 -118.5t-23 -118t-46 -113.5t-78.5 -99t-117 -81t-164.5 -52t-218.5 -20t-219 20t-165 52t-117 81t-78.5 99t-46 113.5 t-23 118t-5.5 118.5z" />
<glyph unicode="V" horiz-adv-x="1402" d="M-31 1462h174l566 -1290l559 1290h164l-646 -1462h-163z" />
<glyph unicode="W" horiz-adv-x="2162" d="M-23 1462h168l406 -1261h4l432 1261h187l432 -1261h4l409 1261h164l-489 -1462h-176l-443 1249h-4l-432 -1249h-176z" />
<glyph unicode="X" horiz-adv-x="1366" d="M-16 0l591 741l-569 721h203l475 -602l490 602h188l-574 -712l594 -750h-200l-502 629l-502 -629h-194z" />
<glyph unicode="Y" horiz-adv-x="1404" d="M-31 1462h195l536 -696l537 696h197l-658 -848l2 -614h-151l-2 614z" />
<glyph unicode="Z" horiz-adv-x="1327" d="M8 139l1086 1184h-1016v139h1220v-139l-1091 -1184h1108l2 -139h-1307z" />
<glyph unicode="[" horiz-adv-x="720" d="M219 -389v1851h402v-114h-263v-1622h263v-115h-402z" />
<glyph unicode="\" horiz-adv-x="833" d="M4 1499h115l706 -1536h-114z" />
<glyph unicode="]" horiz-adv-x="720" d="M96 -274h262v1622h-262v114h402v-1851h-402v115z" />
<glyph unicode="^" horiz-adv-x="1228" d="M88 489l473 928h103l473 -928h-115l-410 801l-409 -801h-115z" />
<glyph unicode="_" horiz-adv-x="1024" d="M0 -154h1022v-102h-1022v102z" />
<glyph unicode="`" horiz-adv-x="376" d="M-102 1518h184l235 -291h-124z" />
<glyph unicode="a" horiz-adv-x="1251" d="M59 287q0 60 18 108.5t46 81.5t72 58.5t87.5 40.5t101 24.5t103 14t103.5 6.5q172 8 247.5 21.5t100.5 38.5t25 81q0 116 -81 162.5t-272 46.5q-183 0 -270 -53.5t-94 -180.5h-140q9 87 38.5 151t87 112.5t153 73t229.5 24.5q260 0 374 -78.5t114 -237.5v-557 q0 -65 19.5 -92t64.5 -27q12 0 80 5v-103q-83 -16 -127 -16q-55 0 -90 16.5t-50 47.5t-19.5 58t-4.5 66h-4q-20 -29 -36.5 -50t-58.5 -54.5t-91 -54.5t-131 -37.5t-181 -16.5q-73 0 -142 17t-132 52.5t-101.5 100t-38.5 150.5zM211 297q0 -215 307 -215q79 0 156.5 21.5 t142.5 61t105.5 104t40.5 143.5v161q-44 -30 -130.5 -43t-343.5 -36q-140 -13 -209 -58.5t-69 -138.5z" />
<glyph unicode="b" horiz-adv-x="1366" d="M115 1475h151v-623h4q55 106 172 176t263 70q144 0 257 -46t182 -126t104.5 -180t35.5 -214q0 -82 -18 -159t-61.5 -152t-108 -130.5t-165.5 -89.5t-226 -34q-73 0 -139.5 17t-114 43.5t-86 60.5t-61 65t-34.5 60h-4l2 -213h-151zM258 532q0 -204 126 -321t321 -117 q90 0 163 25.5t121.5 67.5t81.5 99t47.5 118.5t14.5 127.5q0 198 -122 318.5t-306 120.5q-112 0 -199.5 -37.5t-140.5 -100.5t-80 -139.5t-27 -161.5z" />
<glyph unicode="c" horiz-adv-x="1251" d="M59 532q0 121 37.5 223t110.5 179t189 120.5t263 43.5q105 0 193 -25t145 -64.5t99.5 -91.5t63.5 -101t30 -99h-152q-66 254 -379 254q-218 0 -333 -122.5t-115 -316.5q0 -201 117.5 -319.5t330.5 -118.5q161 0 259 78t129 209h151q-9 -48 -29 -97t-62 -108t-99 -103.5 t-148 -75t-201 -30.5q-284 0 -442 154t-158 411z" />
<glyph unicode="d" horiz-adv-x="1366" d="M78 532q0 114 35.5 214t104.5 180t182 126t257 46q146 0 263 -70t172 -176h4v623h151l2 -1475h-151l-2 213h-4q-19 -39 -51 -77.5t-83.5 -78.5t-130 -65t-170.5 -25q-125 0 -226 34t-165.5 89.5t-108 130.5t-61.5 152t-18 159zM229 532q0 -66 14.5 -127.5t47.5 -118.5 t81.5 -99t121.5 -67.5t163 -25.5q195 0 321 117t126 321q0 85 -27 161.5t-80 139.5t-140.5 100.5t-199.5 37.5q-184 0 -306 -120.5t-122 -318.5z" />
<glyph unicode="e" horiz-adv-x="1327" d="M78 532q0 114 35.5 214t104.5 180t182 126t257 46q88 0 167.5 -16t160.5 -58t139.5 -107.5t95.5 -173.5t37 -247h-1028q0 -83 29.5 -156t83 -128t135 -86.5t180.5 -31.5q185 0 282 59.5t140 186.5h152q-24 -75 -66.5 -138.5t-109.5 -118t-169 -85.5t-229 -31 q-125 0 -226 34t-165.5 89.5t-108 130.5t-61.5 152t-18 159zM229 610h877q-16 95 -57.5 166.5t-102 113t-130 61.5t-148.5 20q-76 0 -146.5 -20t-133 -61.5t-105 -113.5t-54.5 -166z" />
<glyph unicode="f" horiz-adv-x="645" d="M-12 950v115h229v141q0 148 72 208.5t227 60.5q100 0 170 -9v-127q-70 9 -141 9q-103 0 -139.5 -33t-36.5 -125v-125h301v-115h-301l2 -950h-152l-2 950h-229z" />
<glyph unicode="g" horiz-adv-x="1366" d="M59 555q0 109 35.5 205t104.5 172.5t183 121t259 44.5q161 0 282 -61t173 -179h4v207h151v-1024q0 -114 -36 -202t-93.5 -141.5t-138 -88t-160.5 -47.5t-170 -13q-100 0 -182 13.5t-136.5 34.5t-96 52.5t-64 61t-37.5 67t-20 63t-8 55.5h139q6 -31 11 -49.5t18 -46.5 t30 -44.5t47.5 -36t70.5 -30t99.5 -18t134.5 -7.5q213 0 327 98.5t114 288.5v191h-4q-24 -45 -60.5 -84.5t-92 -76.5t-137 -59t-179.5 -22q-85 0 -163 17.5t-153 58.5t-130 103t-88.5 159t-33.5 217zM211 555q0 -91 22.5 -163.5t62.5 -121.5t97.5 -81.5t124 -47t144.5 -14.5 q194 0 318 115t124 313q0 85 -29.5 159.5t-85 132t-143 91t-197.5 33.5q-203 0 -320.5 -110t-117.5 -306z" />
<glyph unicode="h" horiz-adv-x="1290" d="M115 1475h151v-619h4q36 95 155.5 168.5t285.5 73.5q128 0 219.5 -32t143 -93t74.5 -137.5t23 -176.5l3 -659h-152l-2 686q0 285 -322 285q-218 0 -325 -102.5t-107 -290.5l2 -578h-151z" />
<glyph unicode="i" horiz-adv-x="376" d="M111 1065h151l2 -1065h-151zM111 1249v226h151v-226h-151z" />
<glyph unicode="j" horiz-adv-x="376" d="M-154 -317q38 -7 103 -7q95 0 128.5 37.5t33.5 124.5v1227h151v-1227q0 -289 -272 -289q-28 0 -80.5 3.5t-63.5 3.5v127zM111 1249v226h151v-226h-151z" />
<glyph unicode="k" horiz-adv-x="1175" d="M115 1475h151v-928l649 518h226l-523 -403l564 -662h-201l-475 563l-240 -182l2 -381h-151z" />
<glyph unicode="l" horiz-adv-x="376" d="M111 1475h151l2 -1475h-151z" />
<glyph unicode="m" horiz-adv-x="2048" d="M115 1065h151v-197h4q128 230 422 230q86 0 156 -21t114 -57t71 -74.5t40 -81.5q41 90 156 162t262 72q217 0 327.5 -99.5t110.5 -271.5l2 -727h-151l-2 676q0 149 -77 222t-241 73q-174 0 -268 -92t-94 -250l2 -629h-152l-2 721q0 108 -77.5 179t-225.5 71 q-169 0 -273 -96t-104 -275l2 -600h-151z" />
<glyph unicode="n" horiz-adv-x="1290" d="M115 1065h151v-209h4q36 95 155.5 168.5t285.5 73.5q128 0 219.5 -32t143 -93t74.5 -137.5t23 -176.5l3 -659h-152l-2 686q0 285 -322 285q-218 0 -325 -102.5t-107 -290.5l2 -578h-151z" />
<glyph unicode="o" d="M78 532q0 114 37.5 214.5t110 179.5t190 125.5t266.5 46.5t266.5 -46.5t190 -125.5t110 -179.5t37.5 -214.5t-37.5 -214t-110 -179.5t-190 -125.5t-266.5 -46t-266.5 46t-190 125.5t-110 179.5t-37.5 214zM229 532q0 -195 121 -316.5t332 -121.5t332 121.5t121 316.5 t-121 317t-332 122t-332 -122t-121 -317z" />
<glyph unicode="p" horiz-adv-x="1366" d="M115 -414v1479h151v-213h4q14 32 32 60.5t54 64.5t80.5 61t114.5 42.5t154 17.5q125 0 226 -34t165.5 -90t108 -131t61.5 -152t18 -159q0 -114 -35.5 -214t-104.5 -179.5t-182 -125.5t-257 -46q-145 0 -262.5 70t-172.5 176h-4v-627h-151zM258 532q0 -85 27 -161.5 t80 -139.5t140.5 -100t199.5 -37q184 0 306 120t122 318q0 66 -14.5 127.5t-47.5 119t-81.5 99.5t-121.5 67.5t-163 25.5q-195 0 -321 -117.5t-126 -321.5z" />
<glyph unicode="q" horiz-adv-x="1366" d="M78 532q0 80 20.5 158.5t66 152.5t110 130.5t160.5 90.5t210 34q93 0 174 -24t134.5 -62.5t88 -79t50.5 -80.5h4v213h151v-1479h-151v627h-4q-55 -106 -172.5 -176t-262.5 -70q-144 0 -257 46t-182 125.5t-104.5 179.5t-35.5 214zM229 532q0 -198 122 -318t306 -120 q112 0 199.5 37t140.5 100t80 139.5t27 161.5q0 204 -126 321.5t-321 117.5q-90 0 -163 -25.5t-121.5 -67.5t-81.5 -99.5t-47.5 -119t-14.5 -127.5z" />
<glyph unicode="r" horiz-adv-x="757" d="M115 1065h151v-244h4q19 43 39.5 77.5t55.5 73.5t76.5 65t102.5 43.5t134 17.5q59 0 90 -8v-156q-71 12 -139 12q-66 0 -127 -21t-115.5 -66t-87.5 -126.5t-33 -189.5l2 -543h-151z" />
<glyph unicode="s" horiz-adv-x="1138" d="M45 334h139q20 -134 108 -187t292 -53q172 0 263 45t91 158q0 55 -32.5 88t-121.5 57.5t-254 40.5q-249 25 -348.5 91.5t-99.5 207.5q0 143 117.5 229.5t341.5 86.5q251 0 372.5 -88t133.5 -260h-140q-28 126 -111.5 173.5t-254.5 47.5q-308 0 -308 -183 q0 -34 11.5 -56.5t34.5 -40t73 -31t111.5 -24t165.5 -24.5q130 -17 210.5 -37t140.5 -54.5t85 -86.5t25 -129q0 -162 -128.5 -250t-377.5 -88q-539 0 -539 367z" />
<glyph unicode="t" horiz-adv-x="720" d="M-12 950v115h229v336h152v-336h301v-115h-301v-704q0 -73 31.5 -104t119.5 -31t150 12v-127q-86 -12 -166 -12q-88 0 -145 16.5t-88 52t-42.5 81t-11.5 114.5v702h-229z" />
<glyph unicode="u" horiz-adv-x="1290" d="M115 406v659h151v-686q0 -151 83.5 -218t238.5 -67q218 0 325 102.5t107 290.5v578h151l3 -1065h-152l-2 209h-4q-36 -95 -155.5 -168.5t-285.5 -73.5q-128 0 -219.5 32t-143 93t-74.5 137.5t-23 176.5z" />
<glyph unicode="v" horiz-adv-x="1138" d="M-12 1065h162l417 -891l418 891h164l-498 -1065h-164z" />
<glyph unicode="w" horiz-adv-x="1820" d="M0 1065h162l338 -872l321 872h164l328 -866l342 866h164l-430 -1065h-164l-324 852l-315 -852h-164z" />
<glyph unicode="x" horiz-adv-x="1175" d="M-6 0l487 553l-454 512h196l361 -406l358 406h199l-461 -512l502 -553h-201l-397 442l-391 -442h-199z" />
<glyph unicode="y" horiz-adv-x="1138" d="M-12 1065h162l434 -887l401 887h164l-578 -1264q-57 -126 -121.5 -170.5t-189.5 -44.5h-74q-25 0 -71 4v127q66 -4 108 -4q84 0 129.5 27t81.5 104l70 148z" />
<glyph unicode="z" horiz-adv-x="1138" d="M39 127l809 811h-762v127h979v-127l-825 -811h856l2 -127h-1057z" />
<glyph unicode="{" horiz-adv-x="720" d="M96 498v77q70 0 96.5 58t26.5 223v358q0 248 219 248h119v-78h-100q-51 0 -75 -36.5t-24 -133.5v-358q0 -146 -47 -224.5t-112 -92.5v-4q65 -14 112 -92.5t47 -225.5v-358q0 -97 24 -133.5t75 -36.5h100v-78h-119q-219 0 -219 248v358q0 165 -26.5 223t-96.5 58z" />
<glyph unicode="|" horiz-adv-x="454" d="M174 -37v1536h102v-1536h-102z" />
<glyph unicode="}" horiz-adv-x="720" d="M160 -311h100q48 0 73 36.5t25 133.5v358q0 146 47.5 225t112.5 93v4q-65 14 -112.5 92.5t-47.5 224.5v358q0 97 -25 133.5t-73 36.5h-100v78h119q219 0 219 -248v-358q0 -165 26.5 -223t96.5 -58v-77q-70 0 -96.5 -58t-26.5 -223v-358q0 -248 -219 -248h-119v78z" />
<glyph unicode="~" horiz-adv-x="1228" d="M139 463q86 176 256 176q77 0 228 -66q13 -6 44 -20t47.5 -20.5t40 -15.5t42 -13t34.5 -4q24 0 47 9.5t38 20t36 36t29.5 37.5t30.5 44l73 -74q-26 -39 -48 -65.5t-53.5 -54.5t-70.5 -42t-84 -14q-89 0 -208 68q-122 72 -236 72q-61 0 -101.5 -41t-70.5 -107z" />
<glyph unicode="&#xa1;" horiz-adv-x="606" d="M213 872v226h176v-226h-176zM219 23l37 696h90l37 -696v-388h-164v388z" />
<glyph unicode="&#xa2;" d="M113 532q0 70 16.5 141t56.5 145.5t99.5 132.5t155.5 98.5t214 48.5v172h90v-172q98 -5 179.5 -32t135.5 -65.5t93.5 -89t60 -98.5t29.5 -96h-151q-66 241 -347 254v-877q148 10 236 86t119 201h151q-9 -47 -28 -94.5t-58.5 -105t-93 -101.5t-138.5 -76t-188 -37v-221 h-90v223q-258 17 -400 169.5t-142 393.5zM264 532q0 -187 101.5 -303t289.5 -133v873q-100 -10 -176.5 -49t-122.5 -99.5t-69 -133t-23 -155.5z" />
<glyph unicode="&#xa3;" d="M92 88q102 72 177 175t75 210q0 52 -53 182h-185v90h148q-50 83 -74 142.5t-24 124.5q0 193 147.5 315.5t403.5 122.5q266 0 407 -125.5t141 -345.5h-151q0 93 -37 162.5t-98.5 107.5t-130.5 56t-144 18q-98 0 -184.5 -33.5t-144.5 -104.5t-58 -165q0 -52 20.5 -108 t47.5 -105t31 -62h452v-90h-416q41 -87 41 -190q0 -77 -64.5 -178.5t-146.5 -155.5l4 -4q141 57 232 57q18 0 37 -2t46.5 -7.5t39 -7.5t49.5 -11.5t43 -10.5q14 -3 53.5 -13t57 -14t43.5 -8t43 -4q129 0 301 134l51 -127q-38 -47 -143.5 -96.5t-208.5 -49.5q-80 0 -244 45 t-227 45q-137 0 -285 -86z" />
<glyph unicode="&#xa4;" d="M174 279l111 114q-111 131 -111 316q0 184 111 315l-111 115l78 78l113 -113q137 113 317 113t317 -113l113 113l78 -78l-111 -115q111 -131 111 -315q0 -185 -111 -316l111 -114l-78 -78l-113 112q-136 -112 -317 -112t-317 112l-113 -112zM276 709q0 -109 55.5 -203 t149 -148.5t201.5 -54.5q165 0 285 119.5t120 286.5q0 109 -55 202.5t-148.5 148t-201.5 54.5q-165 0 -285.5 -119.5t-120.5 -285.5z" />
<glyph unicode="&#xa5;" d="M-14 1417h174l522 -696l522 696h176l-528 -698h328v-103h-406l-16 -22v-197h422v-102h-422l2 -295h-152l-2 295h-422v102h422v197l-16 22h-406v103h328z" />
<glyph unicode="&#xa6;" horiz-adv-x="454" d="M174 -37v563h102v-563h-102zM174 936v563h102v-563h-102z" />
<glyph unicode="&#xa7;" horiz-adv-x="1366" d="M98 662q0 44 9.5 82t24 65.5t36 51.5t41 39t43.5 28t39 19t32.5 11.5t18.5 6.5q-121 78 -121 206q0 66 22.5 122.5t71 104t135 74.5t203.5 27q101 0 184.5 -21t148.5 -64t101.5 -116t36.5 -170h-151q0 28 -7 57t-28.5 64t-55 61t-93 44t-136.5 18q-134 0 -207 -45 t-73 -131q0 -35 17.5 -66.5t43 -55t71 -49t84.5 -43t101 -42.5l268 -113q61 -26 102 -46.5t83 -50.5t66 -62t39.5 -77t15.5 -99q0 -41 -10 -77t-22.5 -61.5t-37 -49t-41.5 -36.5t-48 -28.5t-44 -20.5t-41 -16q18 -13 29 -21.5t31 -30t32 -43.5t21.5 -57.5t9.5 -75.5 q0 -64 -26.5 -122t-78.5 -105.5t-139 -75.5t-197 -28q-112 0 -198 21t-141 56t-91.5 86.5t-53 106t-21.5 121.5h151q4 -72 34 -125t80 -82.5t109.5 -43t130.5 -13.5q120 0 204.5 48.5t84.5 139.5q0 45 -20 81.5t-67 69.5t-94 57t-130 60l-262 113q-80 34 -132.5 63t-98.5 67 t-67.5 85.5t-21.5 106.5zM238 698q0 -47 18.5 -82t49.5 -59.5t94 -55t128.5 -57t179 -77t220.5 -103.5q14 0 36.5 7t50.5 23t52 39t40.5 58.5t16.5 77.5q0 34 -12 63t-31.5 52.5t-56.5 48.5t-74.5 45t-99 47t-116.5 50t-141 59t-159 69q-14 -2 -36.5 -11t-51 -27t-52 -40.5 t-40 -56t-16.5 -70.5z" />
<glyph unicode="&#xa8;" horiz-adv-x="376" d="M-119 1260v225h150v-225h-150zM342 1260v225h152v-225h-152z" />
<glyph unicode="&#xa9;" horiz-adv-x="1638" d="M49 731q0 209 103 385.5t279.5 279.5t385.5 103t385.5 -103t279.5 -279.5t103 -385.5t-103 -385.5t-279.5 -279.5t-385.5 -103t-385.5 103t-279.5 279.5t-103 385.5zM152 731q0 -186 87.5 -341.5t240.5 -246t337 -90.5q185 0 338.5 91t240.5 247t87 342 q0 137 -51.5 261.5t-139.5 215.5t-212 145t-263 54q-184 0 -337 -91t-240.5 -246.5t-87.5 -340.5zM377 731q0 214 123.5 350t335.5 136q156 0 264 -84.5t131 -235.5h-115q-20 96 -93.5 156.5t-186.5 60.5q-162 0 -253 -107t-91 -276q0 -103 40.5 -189.5t121.5 -141 t188 -54.5q110 0 183 63t91 164h115q-36 -150 -139.5 -239.5t-249.5 -89.5q-209 0 -337 139t-128 348z" />
<glyph unicode="&#xaa;" horiz-adv-x="813" d="M39 967q0 105 88 153t272 56q93 3 138.5 10.5t60 21t14.5 39.5q0 61 -48 87t-169 26q-111 0 -166 -30t-59 -97h-102q13 108 87 162.5t244 54.5q168 0 242 -47.5t74 -142.5v-312q0 -40 12.5 -55.5t42.5 -15.5t51 8v-78q-72 -8 -94 -8q-35 0 -57.5 8.5t-32.5 25t-13 32 t-3 38.5h-5q-7 -19 -24.5 -38.5t-51 -41.5t-94.5 -35.5t-139 -13.5q-47 0 -92.5 10.5t-86 32.5t-65 61t-24.5 89zM154 973q0 -64 52 -92.5t130 -28.5q69 0 130.5 21t103.5 68t42 110v79q-24 -18 -124.5 -31.5t-139.5 -13.5q-80 -5 -124 -20.5t-57 -36t-13 -55.5z" />
<glyph unicode="&#xab;" horiz-adv-x="1024" d="M147 487v148l322 276v-157l-231 -193l231 -192v-158zM526 487v148l322 276v-157l-232 -193l232 -192v-158z" />
<glyph unicode="&#xac;" horiz-adv-x="1228" d="M94 666v102h1036v-547h-102v445h-934z" />
<glyph unicode="&#xad;" horiz-adv-x="909" d="M139 485v152h623v-152h-623z" />
<glyph unicode="&#xae;" horiz-adv-x="1638" d="M49 731q0 209 103 385.5t279.5 279.5t385.5 103t385.5 -103t279.5 -279.5t103 -385.5t-103 -385.5t-279.5 -279.5t-385.5 -103t-385.5 103t-279.5 279.5t-103 385.5zM152 731q0 -186 87.5 -341.5t240.5 -246t337 -90.5q185 0 338.5 91t240.5 247t87 342 q0 137 -51.5 261.5t-139.5 215.5t-212 145t-263 54q-184 0 -337 -91t-240.5 -246.5t-87.5 -340.5zM530 274v914h351q297 0 297 -254q0 -113 -63.5 -174t-166.5 -80l275 -406h-127l-269 406h-194v-406h-103zM633 770h227q101 0 158 36.5t57 129.5q0 162 -215 162h-227v-328z " />
<glyph unicode="&#xaf;" horiz-adv-x="376" d="M-209 1315v115h789v-115h-789z" />
<glyph unicode="&#xb0;" horiz-adv-x="819" d="M115 1157q0 123 85 208t208 85t207.5 -85t84.5 -208t-84.5 -208t-207.5 -85t-208 85t-85 208zM205 1157q0 -86 58.5 -144.5t144.5 -58.5t144 58.5t58 144.5t-58 144.5t-144 58.5t-144.5 -58.5t-58.5 -144.5z" />
<glyph unicode="&#xb1;" horiz-adv-x="1228" d="M94 102h1036l3 -102h-1037zM94 561v103h467v372h103v-372h466v-103h-466v-373h-103v373h-467z" />
<glyph unicode="&#xb2;" horiz-adv-x="888" d="M68 586q5 44 16 77.5t41 77.5t93.5 90t160.5 93q72 36 110.5 57t78 47t57 48t28.5 49.5t11 62.5q0 172 -220 172q-69 0 -118.5 -19t-75 -52t-36.5 -69t-11 -79h-115q0 309 356 309q91 0 158.5 -23t104.5 -62.5t54 -83.5t17 -93q0 -101 -57.5 -166.5t-157.5 -110.5 q-205 -97 -273 -140t-83 -83h581v-102h-720z" />
<glyph unicode="&#xb3;" horiz-adv-x="888" d="M72 858h114q0 -52 18 -90.5t45 -60.5t67 -35t76.5 -17t80.5 -4q113 0 169 51t56 117q0 33 -10 58.5t-25 43t-41.5 30t-50 19.5t-61 11.5t-63.5 6t-68 3.5v90q16 -4 29 -4h36q107 0 162.5 31t55.5 106q0 69 -58.5 107.5t-148.5 38.5q-125 0 -185.5 -53.5t-60.5 -143.5 h-115q5 126 95 206.5t266 80.5q63 0 118 -13t102 -40t74 -74t27 -109q0 -64 -45 -114t-127 -60v-4q90 -5 149.5 -61.5t59.5 -151.5q0 -71 -29.5 -123.5t-80 -82t-109.5 -43t-127 -13.5q-197 0 -296 70.5t-99 226.5z" />
<glyph unicode="&#xb4;" horiz-adv-x="376" d="M55 1227l236 291h186l-297 -291h-125z" />
<glyph unicode="&#xb5;" horiz-adv-x="1290" d="M113 1065h151v-686q0 -77 26 -134t72 -89t101.5 -47t122.5 -15q218 0 325 102.5t107 290.5v578h151l5 -1065h-152l-4 209h-4q-36 -95 -155.5 -168.5t-285.5 -73.5q-209 0 -309 103v-484h-149z" />
<glyph unicode="&#xb6;" horiz-adv-x="1228" d="M84 1061q0 194 119.5 297.5t337.5 103.5h444v-1781h-115v1691h-247v-1691h-115v991q-179 0 -301.5 114t-122.5 275z" />
<glyph unicode="&#xb7;" horiz-adv-x="569" d="M145 639q0 55 40 95t96 40q55 0 95 -40t40 -95t-40 -95t-95 -40q-56 0 -96 40t-40 95z" />
<glyph unicode="&#xb8;" horiz-adv-x="376" d="M-33 -379l25 72q98 -29 166 -29q139 0 139 78q0 38 -32.5 56t-74.5 18q-67 0 -108 -23l-35 35l117 172h84l-86 -121l4 -4q33 10 82 10q79 0 127.5 -39t48.5 -104t-72 -110.5t-186 -45.5q-51 0 -109.5 11.5t-89.5 23.5z" />
<glyph unicode="&#xb9;" horiz-adv-x="591" d="M25 1212v78h65q113 0 160.5 29.5t71.5 130.5h90v-864h-115v626h-272z" />
<glyph unicode="&#xba;" horiz-adv-x="888" d="M49 1114q0 67 24.5 126.5t71 106.5t123.5 75t174 28t174 -28t124 -75t71.5 -106.5t24.5 -126.5q0 -69 -24.5 -129.5t-71.5 -108t-124 -75t-174 -27.5t-174 27.5t-124 75t-71 108t-24 129.5zM164 1114q0 -117 74.5 -183.5t203.5 -66.5t204 66.5t75 183.5q0 113 -75 179.5 t-204 66.5t-203.5 -66.5t-74.5 -179.5z" />
<glyph unicode="&#xbb;" horiz-adv-x="1024" d="M172 211v158l231 192l-231 193v157l322 -276v-148zM551 211v158l231 192l-231 193v157l321 -276v-148z" />
<glyph unicode="&#xbc;" horiz-adv-x="2048" d="M25 1212v78h65q113 0 160.5 29.5t71.5 130.5h90v-864h-115v626h-272zM358 -33l871 1483h127l-871 -1483h-127zM1182 203v90l499 571h103v-571h164v-90h-164l2 -203h-115l-2 203h-487zM1296 293h373v420h-4z" />
<glyph unicode="&#xbd;" horiz-adv-x="2048" d="M25 1212v78h65q113 0 160.5 29.5t71.5 130.5h90v-864h-115v626h-272zM358 -33l871 1483h127l-871 -1483h-127zM1229 0q4 35 10 60.5t25 62.5t50.5 68.5t88 70t135.5 76.5q72 36 110.5 57t78 47t57 48t28.5 49.5t11 62.5q0 172 -219 172q-69 0 -118.5 -19t-75.5 -51.5 t-37 -67.5t-11 -75h-115q0 155 93.5 229t263.5 74q91 0 158.5 -23t104 -62.5t53.5 -83.5t17 -93q0 -101 -57 -166t-158 -110q-204 -97 -272.5 -140.5t-83.5 -83.5h582l2 -102h-721z" />
<glyph unicode="&#xbe;" horiz-adv-x="2048" d="M72 858h114q0 -52 18 -90.5t45 -60.5t67 -35t76.5 -17t80.5 -4q113 0 169 51t56 117q0 33 -10 58.5t-25 43t-41.5 30t-50 19.5t-61 11.5t-63.5 6t-68 3.5v90q16 -4 29 -4h36q107 0 162.5 31t55.5 106q0 69 -58.5 107.5t-148.5 38.5q-125 0 -185.5 -53.5t-60.5 -143.5 h-115q5 126 95 206.5t266 80.5q63 0 118 -13t102 -40t74 -74t27 -109q0 -64 -45 -114t-127 -60v-4q90 -5 149.5 -61.5t59.5 -151.5q0 -71 -29.5 -123.5t-80 -82t-109.5 -43t-127 -13.5q-197 0 -296 70.5t-99 226.5zM567 -33l871 1483h127l-871 -1483h-127zM1182 203v90 l499 571h103v-571h164v-90h-164l2 -203h-115l-2 203h-487zM1296 293h373v420h-4z" />
<glyph unicode="&#xbf;" horiz-adv-x="1327" d="M154 20q0 56 12 101.5t31.5 82t59 75t80.5 70.5t109 79q55 39 88 66.5t54 50.5t29.5 51t11 52.5t2.5 70.5h139q0 -58 -1 -89.5t-12.5 -67.5t-22 -53.5t-45.5 -52t-66 -58.5t-100 -77q-5 -4 -7.5 -5.5t-6.5 -4.5t-7 -6q-95 -72 -127 -106q-70 -77 -70 -179 q0 -128 107 -205t272 -77q191 0 282.5 95t96.5 259h151q0 -103 -33.5 -191.5t-98 -156t-167 -106.5t-231.5 -39q-83 0 -159 15.5t-144 49t-118 81.5t-79.5 119t-29.5 156zM612 872v226h176v-226h-176z" />
<glyph unicode="&#xc0;" horiz-adv-x="1478" d="M-12 0l661 1462h176l666 -1462h-176l-197 444h-770l-196 -444h-164zM393 1866h185l235 -291h-125zM410 584h647l-322 727z" />
<glyph unicode="&#xc1;" horiz-adv-x="1478" d="M-12 0l661 1462h176l666 -1462h-176l-197 444h-770l-196 -444h-164zM410 584h647l-322 727zM655 1575l236 291h186l-297 -291h-125z" />
<glyph unicode="&#xc2;" horiz-adv-x="1478" d="M-12 0l661 1462h176l666 -1462h-176l-197 444h-770l-196 -444h-164zM367 1575l290 291h164l293 -291h-153l-222 207l-219 -207h-153zM410 584h647l-322 727z" />
<glyph unicode="&#xc3;" horiz-adv-x="1478" d="M-12 0l661 1462h176l666 -1462h-176l-197 444h-770l-196 -444h-164zM358 1610q41 221 209 221q77 0 185 -53q89 -44 128 -51q17 -3 33 -3q32 0 54 10t33.5 28t16 33.5t7.5 35.5h90q-16 -88 -55 -143q-56 -78 -156 -78q-76 0 -184 53q-37 18 -56 26.5t-49.5 17.5t-56.5 9 q-31 0 -52.5 -10t-32.5 -28t-15.5 -32.5t-7.5 -35.5h-91zM410 584h647l-322 727z" />
<glyph unicode="&#xc4;" horiz-adv-x="1478" d="M-12 0l661 1462h176l666 -1462h-176l-197 444h-770l-196 -444h-164zM410 584h647l-322 727zM430 1608v225h150v-225h-150zM891 1608v225h151v-225h-151z" />
<glyph unicode="&#xc5;" horiz-adv-x="1478" d="M-12 0l661 1462h176l666 -1462h-176l-197 444h-770l-196 -444h-164zM410 584h647l-322 727zM510 1769q0 93 65.5 156.5t159.5 63.5q93 0 159.5 -62t66.5 -158t-66.5 -157.5t-159.5 -61.5q-95 0 -160 61t-65 158zM588 1769q0 -61 43 -104t104 -43q62 0 105 43t43 104 t-43.5 104.5t-104.5 43.5t-104 -43t-43 -105z" />
<glyph unicode="&#xc6;" horiz-adv-x="2238" d="M-47 0l936 1462h1274v-139h-932v-496h887v-139h-887v-549h942l2 -139h-1094l-2 475h-649l-301 -475h-176zM516 614h563v709h-108z" />
<glyph unicode="&#xc7;" horiz-adv-x="1669" d="M82 731q0 106 25 209.5t84.5 205.5t146.5 179.5t222 125.5t300 48q98 0 191.5 -17.5t183 -58.5t159 -101t117.5 -150.5t60 -202.5h-152q-16 101 -68 178t-129.5 122.5t-168.5 68t-193 22.5q-137 0 -249 -39t-193.5 -115.5t-126.5 -197t-45 -277.5q0 -101 21 -191 t68.5 -171t117 -139.5t174 -93t233.5 -34.5q253 0 393.5 118.5t178.5 336.5h151q-12 -123 -68.5 -231t-147.5 -189t-222 -127.5t-285 -46.5h-8l-59 -84l4 -4q33 10 82 10q79 0 127.5 -39t48.5 -104t-72 -110.5t-186 -45.5q-51 0 -109.5 11.5t-89.5 23.5l25 72 q98 -29 165 -29q140 0 140 78q0 38 -32.5 56t-74.5 18q-67 0 -108 -23l-35 35l94 139q-129 9 -235 49q-216 84 -335.5 268.5t-119.5 446.5z" />
<glyph unicode="&#xc8;" horiz-adv-x="1402" d="M158 1462h1163v-139h-1012v-496h975v-139h-975v-549h1028l2 -139h-1179zM406 1866h184l235 -291h-125z" />
<glyph unicode="&#xc9;" horiz-adv-x="1402" d="M158 1462h1163v-139h-1012v-496h975v-139h-975v-549h1028l2 -139h-1179zM692 1575l236 291h186l-297 -291h-125z" />
<glyph unicode="&#xca;" horiz-adv-x="1402" d="M158 1462h1163v-139h-1012v-496h975v-139h-975v-549h1028l2 -139h-1179zM371 1575l291 291h163l293 -291h-153l-222 207l-219 -207h-153z" />
<glyph unicode="&#xcb;" horiz-adv-x="1402" d="M158 1462h1163v-139h-1012v-496h975v-139h-975v-549h1028l2 -139h-1179zM446 1608v225h150v-225h-150zM907 1608v225h152v-225h-152z" />
<glyph unicode="&#xcc;" horiz-adv-x="454" d="M-125 1866h184l236 -291h-125zM150 1462h151l2 -1462h-151z" />
<glyph unicode="&#xcd;" horiz-adv-x="454" d="M150 1462h151l2 -1462h-151zM150 1575l235 291h186l-297 -291h-124z" />
<glyph unicode="&#xce;" horiz-adv-x="454" d="M-150 1575l291 291h164l293 -291h-154l-221 207l-219 -207h-154zM150 1462h151l2 -1462h-151z" />
<glyph unicode="&#xcf;" horiz-adv-x="454" d="M-78 1608v225h150v-225h-150zM150 1462h151l2 -1462h-151zM383 1608v225h152v-225h-152z" />
<glyph unicode="&#xd0;" horiz-adv-x="1593" d="M0 711v114h133v637h711q316 0 481.5 -191.5t165.5 -539.5q0 -156 -40.5 -288.5t-117 -231.5t-196 -155t-269.5 -56h-733l-2 711h-133zM285 139h553q82 0 152 18t133 61.5t107.5 110t70.5 169t26 233.5q0 294 -119.5 443t-369.5 149h-553v-498h528v-114h-528v-572z" />
<glyph unicode="&#xd1;" horiz-adv-x="1630" d="M133 1462h182l1022 -1249h4v1249h152l2 -1462h-176l-1030 1249h-4l2 -1249h-152zM451 1610q41 221 208 221q77 0 185 -53q40 -20 57 -27.5t48 -17t57 -9.5q32 0 54 10t33 28.5t15.5 33t7.5 35.5h90q-16 -88 -55 -143q-56 -78 -156 -78q-76 0 -184 53q-37 18 -56 26.5 t-49.5 17.5t-56.5 9q-31 0 -52.5 -10t-32.5 -28t-15.5 -32.5t-7.5 -35.5h-90z" />
<glyph unicode="&#xd2;" horiz-adv-x="1744" d="M76 731q0 151 42.5 277.5t117 216t175.5 152t217 92.5t242 30t242.5 -30t217.5 -92.5t175 -152t117 -216t43 -277.5t-43 -277.5t-117 -216t-175 -152t-217.5 -92.5t-242.5 -30t-242 30t-217 92.5t-175.5 152t-117 216t-42.5 277.5zM240 731q0 -129 34.5 -235t94 -178 t140.5 -121.5t171.5 -72t189.5 -22.5t189.5 22.5t171.5 72t140.5 121.5t94.5 178t35 235t-35 235t-94.5 178t-140.5 121.5t-171.5 72t-189.5 22.5t-189.5 -22.5t-171.5 -72t-140.5 -121.5t-94 -178t-34.5 -235zM569 1866h185l235 -291h-125z" />
<glyph unicode="&#xd3;" horiz-adv-x="1744" d="M76 731q0 151 42.5 277.5t117 216t175.5 152t217 92.5t242 30t242.5 -30t217.5 -92.5t175 -152t117 -216t43 -277.5t-43 -277.5t-117 -216t-175 -152t-217.5 -92.5t-242.5 -30t-242 30t-217 92.5t-175.5 152t-117 216t-42.5 277.5zM240 731q0 -129 34.5 -235t94 -178 t140.5 -121.5t171.5 -72t189.5 -22.5t189.5 22.5t171.5 72t140.5 121.5t94.5 178t35 235t-35 235t-94.5 178t-140.5 121.5t-171.5 72t-189.5 22.5t-189.5 -22.5t-171.5 -72t-140.5 -121.5t-94 -178t-34.5 -235zM791 1575l235 291h186l-297 -291h-124z" />
<glyph unicode="&#xd4;" horiz-adv-x="1744" d="M76 731q0 151 42.5 277.5t117 216t175.5 152t217 92.5t242 30t242.5 -30t217.5 -92.5t175 -152t117 -216t43 -277.5t-43 -277.5t-117 -216t-175 -152t-217.5 -92.5t-242.5 -30t-242 30t-217 92.5t-175.5 152t-117 216t-42.5 277.5zM240 731q0 -129 34.5 -235t94 -178 t140.5 -121.5t171.5 -72t189.5 -22.5t189.5 22.5t171.5 72t140.5 121.5t94.5 178t35 235t-35 235t-94.5 178t-140.5 121.5t-171.5 72t-189.5 22.5t-189.5 -22.5t-171.5 -72t-140.5 -121.5t-94 -178t-34.5 -235zM506 1575l291 291h164l292 -291h-153l-221 207l-220 -207h-153 z" />
<glyph unicode="&#xd5;" horiz-adv-x="1744" d="M76 731q0 151 42.5 277.5t117 216t175.5 152t217 92.5t242 30t242.5 -30t217.5 -92.5t175 -152t117 -216t43 -277.5t-43 -277.5t-117 -216t-175 -152t-217.5 -92.5t-242.5 -30t-242 30t-217 92.5t-175.5 152t-117 216t-42.5 277.5zM240 731q0 -129 34.5 -235t94 -178 t140.5 -121.5t171.5 -72t189.5 -22.5t189.5 22.5t171.5 72t140.5 121.5t94.5 178t35 235t-35 235t-94.5 178t-140.5 121.5t-171.5 72t-189.5 22.5t-189.5 -22.5t-171.5 -72t-140.5 -121.5t-94 -178t-34.5 -235zM498 1610q41 221 209 221q76 0 184 -53q40 -20 57 -27.5 t48 -17t57 -9.5q32 0 54 10t33 28.5t15.5 33t7.5 35.5h90q-16 -88 -55 -143q-56 -78 -156 -78q-76 0 -184 53q-37 18 -56 26.5t-49.5 17.5t-56.5 9q-31 0 -52.5 -10t-32.5 -28t-15.5 -32.5t-7.5 -35.5h-90z" />
<glyph unicode="&#xd6;" horiz-adv-x="1744" d="M76 731q0 151 42.5 277.5t117 216t175.5 152t217 92.5t242 30t242.5 -30t217.5 -92.5t175 -152t117 -216t43 -277.5t-43 -277.5t-117 -216t-175 -152t-217.5 -92.5t-242.5 -30t-242 30t-217 92.5t-175.5 152t-117 216t-42.5 277.5zM240 731q0 -129 34.5 -235t94 -178 t140.5 -121.5t171.5 -72t189.5 -22.5t189.5 22.5t171.5 72t140.5 121.5t94.5 178t35 235t-35 235t-94.5 178t-140.5 121.5t-171.5 72t-189.5 22.5t-189.5 -22.5t-171.5 -72t-140.5 -121.5t-94 -178t-34.5 -235zM573 1608v225h150v-225h-150zM1034 1608v225h152v-225h-152z " />
<glyph unicode="&#xd7;" horiz-adv-x="1228" d="M150 129l389 389l-389 389l73 74l387 -391l391 391l74 -74l-391 -389l391 -389l-74 -74l-391 391l-387 -391z" />
<glyph unicode="&#xd8;" horiz-adv-x="1744" d="M76 25l188 182q-188 210 -188 524q0 151 42.5 277.5t117 216t175.5 152t217 92.5t242 30q330 0 545 -182l191 182l59 -61l-188 -181q188 -201 188 -526q0 -151 -43 -277.5t-117 -216t-175 -152t-217.5 -92.5t-242.5 -30q-324 0 -544 184l-191 -184zM240 731 q0 -257 135 -418l930 897q-169 150 -435 150q-99 0 -189.5 -22.5t-171.5 -72t-140.5 -121.5t-94 -178t-34.5 -235zM434 252q166 -150 436 -150q99 0 189.5 22.5t171.5 72t140.5 121.5t94.5 178t35 235q0 258 -137 418z" />
<glyph unicode="&#xd9;" horiz-adv-x="1593" d="M141 565v897h152v-897q0 -111 28.5 -195t74.5 -134t113.5 -81t135.5 -42t150 -11t150 11t135.5 42t113 81t74 134t28.5 195v897h152v-897q0 -64 -5.5 -118.5t-23 -118t-46 -113.5t-78.5 -99t-117 -81t-164.5 -52t-218.5 -20t-219 20t-165 52t-117 81t-78.5 99t-46 113.5 t-23 118t-5.5 118.5zM479 1866h185l235 -291h-125z" />
<glyph unicode="&#xda;" horiz-adv-x="1593" d="M141 565v897h152v-897q0 -111 28.5 -195t74.5 -134t113.5 -81t135.5 -42t150 -11t150 11t135.5 42t113 81t74 134t28.5 195v897h152v-897q0 -64 -5.5 -118.5t-23 -118t-46 -113.5t-78.5 -99t-117 -81t-164.5 -52t-218.5 -20t-219 20t-165 52t-117 81t-78.5 99t-46 113.5 t-23 118t-5.5 118.5zM731 1575l236 291h186l-297 -291h-125z" />
<glyph unicode="&#xdb;" horiz-adv-x="1593" d="M141 565v897h152v-897q0 -111 28.5 -195t74.5 -134t113.5 -81t135.5 -42t150 -11t150 11t135.5 42t113 81t74 134t28.5 195v897h152v-897q0 -64 -5.5 -118.5t-23 -118t-46 -113.5t-78.5 -99t-117 -81t-164.5 -52t-218.5 -20t-219 20t-165 52t-117 81t-78.5 99t-46 113.5 t-23 118t-5.5 118.5zM422 1575l291 291h164l292 -291h-153l-221 207l-220 -207h-153z" />
<glyph unicode="&#xdc;" horiz-adv-x="1593" d="M141 565v897h152v-897q0 -111 28.5 -195t74.5 -134t113.5 -81t135.5 -42t150 -11t150 11t135.5 42t113 81t74 134t28.5 195v897h152v-897q0 -64 -5.5 -118.5t-23 -118t-46 -113.5t-78.5 -99t-117 -81t-164.5 -52t-218.5 -20t-219 20t-165 52t-117 81t-78.5 99t-46 113.5 t-23 118t-5.5 118.5zM502 1608v225h149v-225h-149zM963 1608v225h151v-225h-151z" />
<glyph unicode="&#xdd;" horiz-adv-x="1404" d="M-31 1462h195l536 -696l537 696h197l-658 -848l2 -614h-151l-2 614zM631 1575l235 291h187l-297 -291h-125z" />
<glyph unicode="&#xde;" horiz-adv-x="1441" d="M158 1462h151v-266h637q70 0 132.5 -14t119.5 -46t98 -79.5t65.5 -120t24.5 -162.5q0 -209 -130 -317.5t-377 -108.5h-570l2 -348h-151zM309 487h586q93 0 158 20t101.5 59.5t52.5 89.5t16 118q0 155 -77.5 219t-219.5 64h-617v-570z" />
<glyph unicode="&#xdf;" horiz-adv-x="1290" d="M115 1036q0 216 122 327.5t390 111.5q114 0 203 -24t142.5 -61t88 -87.5t47 -98.5t12.5 -98q0 -117 -68 -190.5t-178 -98.5v-4q20 -3 41 -8t54 -18t61.5 -31.5t59.5 -50.5t53 -72t36.5 -99t14.5 -128q0 -199 -136.5 -319t-375.5 -120q-40 0 -156 17v125q88 -15 131 -15 q187 0 286 92.5t99 239.5q0 166 -107.5 237.5t-316.5 71.5h-75v133q69 -6 84 -6q342 0 342 242q0 64 -28.5 112.5t-77.5 76.5t-108.5 41.5t-127.5 13.5q-105 0 -177 -22.5t-111.5 -66.5t-56 -99t-16.5 -130l2 -1030h-151z" />
<glyph unicode="&#xe0;" horiz-adv-x="1251" d="M59 287q0 60 18 108.5t46 81.5t72 58.5t87.5 40.5t101 24.5t103 14t103.5 6.5q172 8 247.5 21.5t100.5 38.5t25 81q0 116 -81 162.5t-272 46.5q-183 0 -270 -53.5t-94 -180.5h-140q9 87 38.5 151t87 112.5t153 73t229.5 24.5q260 0 374 -78.5t114 -237.5v-557 q0 -65 19.5 -92t64.5 -27q12 0 80 5v-103q-83 -16 -127 -16q-55 0 -90 16.5t-50 47.5t-19.5 58t-4.5 66h-4q-20 -29 -36.5 -50t-58.5 -54.5t-91 -54.5t-131 -37.5t-181 -16.5q-73 0 -142 17t-132 52.5t-101.5 100t-38.5 150.5zM211 297q0 -215 307 -215q79 0 156.5 21.5 t142.5 61t105.5 104t40.5 143.5v161q-44 -30 -130.5 -43t-343.5 -36q-140 -13 -209 -58.5t-69 -138.5zM348 1518h184l236 -291h-125z" />
<glyph unicode="&#xe1;" horiz-adv-x="1251" d="M59 287q0 60 18 108.5t46 81.5t72 58.5t87.5 40.5t101 24.5t103 14t103.5 6.5q172 8 247.5 21.5t100.5 38.5t25 81q0 116 -81 162.5t-272 46.5q-183 0 -270 -53.5t-94 -180.5h-140q9 87 38.5 151t87 112.5t153 73t229.5 24.5q260 0 374 -78.5t114 -237.5v-557 q0 -65 19.5 -92t64.5 -27q12 0 80 5v-103q-83 -16 -127 -16q-55 0 -90 16.5t-50 47.5t-19.5 58t-4.5 66h-4q-20 -29 -36.5 -50t-58.5 -54.5t-91 -54.5t-131 -37.5t-181 -16.5q-73 0 -142 17t-132 52.5t-101.5 100t-38.5 150.5zM211 297q0 -215 307 -215q79 0 156.5 21.5 t142.5 61t105.5 104t40.5 143.5v161q-44 -30 -130.5 -43t-343.5 -36q-140 -13 -209 -58.5t-69 -138.5zM559 1227l236 291h186l-297 -291h-125z" />
<glyph unicode="&#xe2;" horiz-adv-x="1251" d="M59 287q0 60 18 108.5t46 81.5t72 58.5t87.5 40.5t101 24.5t103 14t103.5 6.5q172 8 247.5 21.5t100.5 38.5t25 81q0 116 -81 162.5t-272 46.5q-183 0 -270 -53.5t-94 -180.5h-140q9 87 38.5 151t87 112.5t153 73t229.5 24.5q260 0 374 -78.5t114 -237.5v-557 q0 -65 19.5 -92t64.5 -27q12 0 80 5v-103q-83 -16 -127 -16q-55 0 -90 16.5t-50 47.5t-19.5 58t-4.5 66h-4q-20 -29 -36.5 -50t-58.5 -54.5t-91 -54.5t-131 -37.5t-181 -16.5q-73 0 -142 17t-132 52.5t-101.5 100t-38.5 150.5zM211 297q0 -215 307 -215q79 0 156.5 21.5 t142.5 61t105.5 104t40.5 143.5v161q-44 -30 -130.5 -43t-343.5 -36q-140 -13 -209 -58.5t-69 -138.5zM262 1227l291 291h164l293 -291h-154l-221 207l-219 -207h-154z" />
<glyph unicode="&#xe3;" horiz-adv-x="1251" d="M59 287q0 60 18 108.5t46 81.5t72 58.5t87.5 40.5t101 24.5t103 14t103.5 6.5q172 8 247.5 21.5t100.5 38.5t25 81q0 116 -81 162.5t-272 46.5q-183 0 -270 -53.5t-94 -180.5h-140q9 87 38.5 151t87 112.5t153 73t229.5 24.5q260 0 374 -78.5t114 -237.5v-557 q0 -65 19.5 -92t64.5 -27q12 0 80 5v-103q-83 -16 -127 -16q-55 0 -90 16.5t-50 47.5t-19.5 58t-4.5 66h-4q-20 -29 -36.5 -50t-58.5 -54.5t-91 -54.5t-131 -37.5t-181 -16.5q-73 0 -142 17t-132 52.5t-101.5 100t-38.5 150.5zM211 297q0 -215 307 -215q79 0 156.5 21.5 t142.5 61t105.5 104t40.5 143.5v161q-44 -30 -130.5 -43t-343.5 -36q-140 -13 -209 -58.5t-69 -138.5zM254 1262q41 221 209 221q76 0 184 -53q40 -20 57 -27.5t48 -17t57 -9.5q32 0 54 10t33.5 28t16 33.5t7.5 35.5h90q-16 -87 -56 -144q-56 -77 -155 -77q-77 0 -185 53 q-38 19 -56 27t-48.5 17t-56.5 9q-31 0 -53 -10t-33 -28t-15.5 -33t-7.5 -35h-90z" />
<glyph unicode="&#xe4;" horiz-adv-x="1251" d="M59 287q0 60 18 108.5t46 81.5t72 58.5t87.5 40.5t101 24.5t103 14t103.5 6.5q172 8 247.5 21.5t100.5 38.5t25 81q0 116 -81 162.5t-272 46.5q-183 0 -270 -53.5t-94 -180.5h-140q9 87 38.5 151t87 112.5t153 73t229.5 24.5q260 0 374 -78.5t114 -237.5v-557 q0 -65 19.5 -92t64.5 -27q12 0 80 5v-103q-83 -16 -127 -16q-55 0 -90 16.5t-50 47.5t-19.5 58t-4.5 66h-4q-20 -29 -36.5 -50t-58.5 -54.5t-91 -54.5t-131 -37.5t-181 -16.5q-73 0 -142 17t-132 52.5t-101.5 100t-38.5 150.5zM211 297q0 -215 307 -215q79 0 156.5 21.5 t142.5 61t105.5 104t40.5 143.5v161q-44 -30 -130.5 -43t-343.5 -36q-140 -13 -209 -58.5t-69 -138.5zM328 1260v225h149v-225h-149zM788 1260v225h152v-225h-152z" />
<glyph unicode="&#xe5;" horiz-adv-x="1251" d="M59 287q0 60 18 108.5t46 81.5t72 58.5t87.5 40.5t101 24.5t103 14t103.5 6.5q172 8 247.5 21.5t100.5 38.5t25 81q0 116 -81 162.5t-272 46.5q-183 0 -270 -53.5t-94 -180.5h-140q9 87 38.5 151t87 112.5t153 73t229.5 24.5q260 0 374 -78.5t114 -237.5v-557 q0 -65 19.5 -92t64.5 -27q12 0 80 5v-103q-83 -16 -127 -16q-55 0 -90 16.5t-50 47.5t-19.5 58t-4.5 66h-4q-20 -29 -36.5 -50t-58.5 -54.5t-91 -54.5t-131 -37.5t-181 -16.5q-73 0 -142 17t-132 52.5t-101.5 100t-38.5 150.5zM211 297q0 -215 307 -215q79 0 156.5 21.5 t142.5 61t105.5 104t40.5 143.5v161q-44 -30 -130.5 -43t-343.5 -36q-140 -13 -209 -58.5t-69 -138.5zM410 1434q0 93 65.5 156t159.5 63q93 0 159 -61.5t66 -157.5t-66 -158t-159 -62q-95 0 -160 61.5t-65 158.5zM487 1434q0 -62 43.5 -105t104.5 -43t104 43t43 105 t-43 104.5t-104 42.5q-62 0 -105 -43t-43 -104z" />
<glyph unicode="&#xe6;" horiz-adv-x="2199" d="M72 287q0 60 17.5 108.5t46 81.5t72.5 58.5t87 40.5t100.5 24.5t103 14t103.5 6.5q172 8 247.5 21.5t100.5 38.5t25 81q0 116 -80.5 162.5t-271.5 46.5q-184 0 -271 -53.5t-94 -180.5h-139q9 87 38.5 151t87 112.5t153 73t229.5 24.5q115 0 195 -14t132.5 -44.5t83 -69.5 t54.5 -98q70 113 183 169.5t249 56.5q88 0 167.5 -16t160.5 -58t139.5 -107.5t95.5 -173.5t37 -247h-1010q0 -180 113.5 -291t306.5 -111q178 0 274.5 60.5t135.5 185.5h151q-24 -75 -65.5 -138.5t-107 -118t-165 -85.5t-223.5 -31q-104 0 -192 25t-148 67t-99.5 91 t-58.5 104q-17 -39 -41 -74.5t-69 -76t-102.5 -69t-145.5 -48t-193 -19.5q-73 0 -142 17t-132 52.5t-101 100t-38 150.5zM223 297q0 -215 307 -215q79 0 156.5 21.5t142.5 61t105.5 104t40.5 143.5v161q-44 -30 -130.5 -43t-342.5 -36q-140 -13 -209.5 -58.5t-69.5 -138.5z M1114 610h858q-16 95 -57.5 166.5t-102 113t-130 61.5t-148.5 20q-188 0 -295 -96t-125 -265z" />
<glyph unicode="&#xe7;" horiz-adv-x="1251" d="M59 532q0 121 37.5 223t110.5 179t189 120.5t263 43.5q105 0 193 -25t145 -64.5t99.5 -91.5t63.5 -101t30 -99h-152q-66 254 -379 254q-218 0 -333 -122.5t-115 -316.5q0 -201 117.5 -319.5t330.5 -118.5q161 0 259 78t129 209h151q-9 -48 -29 -97t-62 -108t-99 -103.5 t-148 -75t-201 -30.5h-4l-61 -88l4 -4q33 10 82 10q79 0 127.5 -39t48.5 -104t-72 -110.5t-186 -45.5q-51 0 -109.5 11.5t-89.5 23.5l25 72q98 -29 166 -29q139 0 139 78q0 38 -32 56t-74 18q-68 0 -109 -23l-35 35l96 143q-90 9 -174 37q-164 61 -253 198t-89 326z" />
<glyph unicode="&#xe8;" horiz-adv-x="1327" d="M78 532q0 114 35.5 214t104.5 180t182 126t257 46q88 0 167.5 -16t160.5 -58t139.5 -107.5t95.5 -173.5t37 -247h-1028q0 -83 29.5 -156t83 -128t135 -86.5t180.5 -31.5q185 0 282 59.5t140 186.5h152q-24 -75 -66.5 -138.5t-109.5 -118t-169 -85.5t-229 -31 q-125 0 -226 34t-165.5 89.5t-108 130.5t-61.5 152t-18 159zM229 610h877q-16 95 -57.5 166.5t-102 113t-130 61.5t-148.5 20q-76 0 -146.5 -20t-133 -61.5t-105 -113.5t-54.5 -166zM354 1518h185l235 -291h-125z" />
<glyph unicode="&#xe9;" horiz-adv-x="1327" d="M78 532q0 114 35.5 214t104.5 180t182 126t257 46q88 0 167.5 -16t160.5 -58t139.5 -107.5t95.5 -173.5t37 -247h-1028q0 -83 29.5 -156t83 -128t135 -86.5t180.5 -31.5q185 0 282 59.5t140 186.5h152q-24 -75 -66.5 -138.5t-109.5 -118t-169 -85.5t-229 -31 q-125 0 -226 34t-165.5 89.5t-108 130.5t-61.5 152t-18 159zM229 610h877q-16 95 -57.5 166.5t-102 113t-130 61.5t-148.5 20q-76 0 -146.5 -20t-133 -61.5t-105 -113.5t-54.5 -166zM600 1227l236 291h186l-297 -291h-125z" />
<glyph unicode="&#xea;" horiz-adv-x="1327" d="M78 532q0 114 35.5 214t104.5 180t182 126t257 46q88 0 167.5 -16t160.5 -58t139.5 -107.5t95.5 -173.5t37 -247h-1028q0 -83 29.5 -156t83 -128t135 -86.5t180.5 -31.5q185 0 282 59.5t140 186.5h152q-24 -75 -66.5 -138.5t-109.5 -118t-169 -85.5t-229 -31 q-125 0 -226 34t-165.5 89.5t-108 130.5t-61.5 152t-18 159zM229 610h877q-16 95 -57.5 166.5t-102 113t-130 61.5t-148.5 20q-76 0 -146.5 -20t-133 -61.5t-105 -113.5t-54.5 -166zM293 1227l291 291h164l292 -291h-153l-221 207l-220 -207h-153z" />
<glyph unicode="&#xeb;" horiz-adv-x="1327" d="M78 532q0 114 35.5 214t104.5 180t182 126t257 46q88 0 167.5 -16t160.5 -58t139.5 -107.5t95.5 -173.5t37 -247h-1028q0 -83 29.5 -156t83 -128t135 -86.5t180.5 -31.5q185 0 282 59.5t140 186.5h152q-24 -75 -66.5 -138.5t-109.5 -118t-169 -85.5t-229 -31 q-125 0 -226 34t-165.5 89.5t-108 130.5t-61.5 152t-18 159zM229 610h877q-16 95 -57.5 166.5t-102 113t-130 61.5t-148.5 20q-76 0 -146.5 -20t-133 -61.5t-105 -113.5t-54.5 -166zM367 1260v225h149v-225h-149zM827 1260v225h152v-225h-152z" />
<glyph unicode="&#xec;" horiz-adv-x="376" d="M-154 1518h185l235 -291h-125zM111 1065h151l2 -1065h-151z" />
<glyph unicode="&#xed;" horiz-adv-x="376" d="M111 1065h151l2 -1065h-151zM115 1227l235 291h187l-297 -291h-125z" />
<glyph unicode="&#xee;" horiz-adv-x="376" d="M-184 1227l290 291h164l293 -291h-153l-222 207l-219 -207h-153zM111 1065h151l2 -1065h-151z" />
<glyph unicode="&#xef;" horiz-adv-x="376" d="M-119 1260v225h150v-225h-150zM111 1065h151l2 -1065h-151zM342 1260v225h152v-225h-152z" />
<glyph unicode="&#xf0;" d="M78 532q0 114 37.5 214.5t110 179.5t190 125.5t266.5 46.5q109 0 208.5 -43t168.5 -135h6q-156 284 -397 401l-252 -117l-66 53l232 107q-88 49 -240 98l104 82q149 -43 277 -117l246 113l61 -55l-231 -107q120 -68 216 -173.5t153.5 -219.5t87.5 -226t30 -208 q0 -44 -6.5 -91t-24.5 -105t-46 -111t-75.5 -104.5t-108.5 -89t-149.5 -60.5t-193.5 -23q-149 0 -266.5 46t-190 125.5t-110 179.5t-37.5 214zM229 532q0 -195 121 -316.5t332 -121.5t332 121.5t121 316.5t-121 317t-332 122t-332 -122t-121 -317z" />
<glyph unicode="&#xf1;" horiz-adv-x="1290" d="M115 1065h151v-209h4q36 95 155.5 168.5t285.5 73.5q128 0 219.5 -32t143 -93t74.5 -137.5t23 -176.5l3 -659h-152l-2 686q0 285 -322 285q-218 0 -325 -102.5t-107 -290.5l2 -578h-151zM270 1262q41 221 209 221q77 0 185 -53q89 -44 128 -51q17 -3 33 -3q32 0 54 10 t33.5 28t16 33.5t7.5 35.5h90q-17 -89 -55 -144q-56 -77 -156 -77q-76 0 -184 53q-37 18 -56 26.5t-49.5 17.5t-56.5 9q-31 0 -53 -10t-33 -28t-15.5 -33t-7.5 -35h-90z" />
<glyph unicode="&#xf2;" d="M78 532q0 114 37.5 214.5t110 179.5t190 125.5t266.5 46.5t266.5 -46.5t190 -125.5t110 -179.5t37.5 -214.5t-37.5 -214t-110 -179.5t-190 -125.5t-266.5 -46t-266.5 46t-190 125.5t-110 179.5t-37.5 214zM229 532q0 -195 121 -316.5t332 -121.5t332 121.5t121 316.5 t-121 317t-332 122t-332 -122t-121 -317zM360 1518h185l235 -291h-125z" />
<glyph unicode="&#xf3;" d="M78 532q0 114 37.5 214.5t110 179.5t190 125.5t266.5 46.5t266.5 -46.5t190 -125.5t110 -179.5t37.5 -214.5t-37.5 -214t-110 -179.5t-190 -125.5t-266.5 -46t-266.5 46t-190 125.5t-110 179.5t-37.5 214zM229 532q0 -195 121 -316.5t332 -121.5t332 121.5t121 316.5 t-121 317t-332 122t-332 -122t-121 -317zM612 1227l236 291h186l-297 -291h-125z" />
<glyph unicode="&#xf4;" d="M78 532q0 114 37.5 214.5t110 179.5t190 125.5t266.5 46.5t266.5 -46.5t190 -125.5t110 -179.5t37.5 -214.5t-37.5 -214t-110 -179.5t-190 -125.5t-266.5 -46t-266.5 46t-190 125.5t-110 179.5t-37.5 214zM229 532q0 -195 121 -316.5t332 -121.5t332 121.5t121 316.5 t-121 317t-332 122t-332 -122t-121 -317zM309 1227l291 291h164l293 -291h-154l-221 207l-219 -207h-154z" />
<glyph unicode="&#xf5;" d="M78 532q0 114 37.5 214.5t110 179.5t190 125.5t266.5 46.5t266.5 -46.5t190 -125.5t110 -179.5t37.5 -214.5t-37.5 -214t-110 -179.5t-190 -125.5t-266.5 -46t-266.5 46t-190 125.5t-110 179.5t-37.5 214zM229 532q0 -195 121 -316.5t332 -121.5t332 121.5t121 316.5 t-121 317t-332 122t-332 -122t-121 -317zM305 1262q41 221 209 221q76 0 184 -53q40 -20 57 -27.5t48 -17t57 -9.5q32 0 54 10t33.5 28t16 33.5t7.5 35.5h90q-17 -89 -55 -144q-56 -77 -156 -77q-76 0 -184 53q-37 18 -56 26.5t-49.5 17.5t-56.5 9q-31 0 -53 -10t-33 -28 t-15.5 -33t-7.5 -35h-90z" />
<glyph unicode="&#xf6;" d="M78 532q0 114 37.5 214.5t110 179.5t190 125.5t266.5 46.5t266.5 -46.5t190 -125.5t110 -179.5t37.5 -214.5t-37.5 -214t-110 -179.5t-190 -125.5t-266.5 -46t-266.5 46t-190 125.5t-110 179.5t-37.5 214zM229 532q0 -195 121 -316.5t332 -121.5t332 121.5t121 316.5 t-121 317t-332 122t-332 -122t-121 -317zM377 1260v225h149v-225h-149zM838 1260v225h151v-225h-151z" />
<glyph unicode="&#xf7;" horiz-adv-x="1228" d="M94 467v102h1036v-102h-1036zM500 96q0 47 32.5 80t79.5 33t80 -33t33 -80t-33 -79.5t-80 -32.5t-79.5 32.5t-32.5 79.5zM500 940q0 47 32.5 80t79.5 33t80 -33t33 -80t-33 -80t-80 -33t-79.5 33t-32.5 80z" />
<glyph unicode="&#xf8;" d="M78 20l139 130q-139 151 -139 382q0 114 37.5 214.5t110 179.5t190 125.5t266.5 46.5q258 0 414 -133l141 133l49 -54l-139 -129q139 -151 139 -383q0 -114 -37.5 -214t-110 -179.5t-190 -125.5t-266.5 -46q-255 0 -414 133l-141 -133zM229 532q0 -166 95 -284l667 620 q-119 103 -309 103q-211 0 -332 -122t-121 -317zM373 197q115 -103 309 -103q211 0 332 121.5t121 316.5q0 170 -95 285z" />
<glyph unicode="&#xf9;" horiz-adv-x="1290" d="M115 406v659h151v-686q0 -151 83.5 -218t238.5 -67q218 0 325 102.5t107 290.5v578h151l3 -1065h-152l-2 209h-4q-36 -95 -155.5 -168.5t-285.5 -73.5q-128 0 -219.5 32t-143 93t-74.5 137.5t-23 176.5zM317 1518h185l235 -291h-125z" />
<glyph unicode="&#xfa;" horiz-adv-x="1290" d="M115 406v659h151v-686q0 -151 83.5 -218t238.5 -67q218 0 325 102.5t107 290.5v578h151l3 -1065h-152l-2 209h-4q-36 -95 -155.5 -168.5t-285.5 -73.5q-128 0 -219.5 32t-143 93t-74.5 137.5t-23 176.5zM573 1227l236 291h186l-297 -291h-125z" />
<glyph unicode="&#xfb;" horiz-adv-x="1290" d="M115 406v659h151v-686q0 -151 83.5 -218t238.5 -67q218 0 325 102.5t107 290.5v578h151l3 -1065h-152l-2 209h-4q-36 -95 -155.5 -168.5t-285.5 -73.5q-128 0 -219.5 32t-143 93t-74.5 137.5t-23 176.5zM266 1227l291 291h164l293 -291h-154l-221 207l-219 -207h-154z " />
<glyph unicode="&#xfc;" horiz-adv-x="1290" d="M115 406v659h151v-686q0 -151 83.5 -218t238.5 -67q218 0 325 102.5t107 290.5v578h151l3 -1065h-152l-2 209h-4q-36 -95 -155.5 -168.5t-285.5 -73.5q-128 0 -219.5 32t-143 93t-74.5 137.5t-23 176.5zM334 1260v225h149v-225h-149zM795 1260v225h151v-225h-151z" />
<glyph unicode="&#xfd;" horiz-adv-x="1138" d="M-12 1065h162l434 -887l401 887h164l-578 -1264q-57 -126 -121.5 -170.5t-189.5 -44.5h-74q-25 0 -71 4v127q66 -4 108 -4q84 0 129.5 27t81.5 104l70 148zM518 1227l236 291h186l-297 -291h-125z" />
<glyph unicode="&#xfe;" horiz-adv-x="1366" d="M115 -414v1889h151v-623h4q20 36 36.5 60.5t54 63t80 62.5t112 42t152.5 18q125 0 226 -34t165.5 -90t108 -131t61.5 -152t18 -159q0 -114 -35.5 -214t-104.5 -179.5t-182 -125.5t-257 -46q-145 0 -262.5 70t-172.5 176h-4v-627h-151zM258 532q0 -85 27 -161.5t80 -139.5 t140.5 -100t199.5 -37q184 0 306 120t122 318q0 66 -14.5 127.5t-47.5 119t-81.5 99.5t-121.5 67.5t-163 25.5q-195 0 -321 -117.5t-126 -321.5z" />
<glyph unicode="&#xff;" horiz-adv-x="1138" d="M-12 1065h162l434 -887l401 887h164l-578 -1264q-57 -126 -121.5 -170.5t-189.5 -44.5h-74q-25 0 -71 4v127q66 -4 108 -4q84 0 129.5 27t81.5 104l70 148zM281 1260v225h149v-225h-149zM741 1260v225h152v-225h-152z" />
<glyph unicode="&#x152;" horiz-adv-x="2390" d="M76 731q0 119 29 230.5t89 209.5t144.5 171t203.5 115t259 42q313 0 454 -176h5v139h1054v-139h-903v-496h856v-139h-856v-549h913l3 -139h-1065l-2 160q-167 -197 -459 -197q-153 0 -283.5 48.5t-229.5 141.5t-155.5 241.5t-56.5 336.5zM240 731q0 -157 42.5 -278.5 t118.5 -197.5t177.5 -114.5t222.5 -38.5q89 0 168 22t130.5 54t89 69.5t54.5 68t17 49.5v763q0 16 -16.5 42.5t-54 59.5t-88.5 62t-130.5 48.5t-169.5 19.5q-115 0 -216 -41.5t-178 -118.5t-122 -198.5t-45 -270.5z" />
<glyph unicode="&#x153;" horiz-adv-x="2238" d="M57 532q0 89 24 172.5t72 155t115 125t158 83.5t195 30q112 0 198.5 -21.5t145.5 -63.5t97.5 -89t72.5 -113q56 130 179.5 208.5t309.5 78.5q72 0 143 -16t147 -58.5t132.5 -107.5t93.5 -173.5t37 -246.5h-973q9 -402 420 -402q152 0 242.5 60.5t132.5 185.5h151 q-23 -73 -66.5 -138t-107 -118.5t-155 -85t-197.5 -31.5q-113 0 -210.5 28.5t-176 93t-113.5 159.5q-152 -281 -512 -281q-166 0 -293.5 75.5t-194.5 203.5t-67 286zM209 532q0 -194 117.5 -316t316.5 -122q196 -5 309 108.5t113 329.5q0 91 -24 168.5t-72.5 139 t-130.5 96.5t-189 35q-205 0 -322.5 -122t-117.5 -317zM1204 610h821q-15 94 -57 166t-99.5 113t-119 61.5t-125.5 20.5q-182 0 -285 -86.5t-135 -274.5z" />
<glyph unicode="&#x178;" horiz-adv-x="1404" d="M-31 1462h195l536 -696l537 696h197l-658 -848l2 -614h-151l-2 614zM393 1608v225h150v-225h-150zM854 1608v225h152v-225h-152z" />
<glyph unicode="&#x2c6;" horiz-adv-x="376" d="M-186 1227l290 291h164l293 -291h-153l-222 207l-219 -207h-153z" />
<glyph unicode="&#x2dc;" horiz-adv-x="376" d="M-190 1262q41 221 208 221q77 0 185 -53q40 -20 57 -27.5t48 -17t57 -9.5q32 0 54 10t33 28.5t15.5 33t7.5 35.5h90q-17 -89 -55 -144q-56 -77 -156 -77q-76 0 -184 53q-37 18 -56 26.5t-49.5 17.5t-56.5 9q-31 0 -52.5 -10t-32.5 -28t-15.5 -32.5t-7.5 -35.5h-90z" />
<glyph unicode="&#x2000;" horiz-adv-x="994" />
<glyph unicode="&#x2001;" horiz-adv-x="1989" />
<glyph unicode="&#x2002;" horiz-adv-x="994" />
<glyph unicode="&#x2003;" horiz-adv-x="1989" />
<glyph unicode="&#x2004;" horiz-adv-x="663" />
<glyph unicode="&#x2005;" horiz-adv-x="497" />
<glyph unicode="&#x2006;" horiz-adv-x="331" />
<glyph unicode="&#x2007;" horiz-adv-x="331" />
<glyph unicode="&#x2008;" horiz-adv-x="248" />
<glyph unicode="&#x2009;" horiz-adv-x="397" />
<glyph unicode="&#x200a;" horiz-adv-x="110" />
<glyph unicode="&#x2010;" horiz-adv-x="909" d="M139 485v152h623v-152h-623z" />
<glyph unicode="&#x2011;" horiz-adv-x="909" d="M139 485v152h623v-152h-623z" />
<glyph unicode="&#x2012;" horiz-adv-x="909" d="M139 485v152h623v-152h-623z" />
<glyph unicode="&#x2013;" horiz-adv-x="1024" d="M0 498v127h1022v-127h-1022z" />
<glyph unicode="&#x2014;" horiz-adv-x="2048" d="M0 498v127h2046v-127h-2046z" />
<glyph unicode="&#x2018;" horiz-adv-x="569" d="M195 950v230q0 229 194 282v-78q-57 -27 -74.5 -73.5t-17.5 -134.5h74v-226h-176z" />
<glyph unicode="&#x2019;" horiz-adv-x="569" d="M176 950v78q57 27 74.5 74t17.5 135h-73v225h176v-229q0 -230 -195 -283z" />
<glyph unicode="&#x201a;" horiz-adv-x="569" d="M176 -209q57 27 74.5 74t19.5 135h-73l-2 225h176v-229q0 -230 -195 -283v78z" />
<glyph unicode="&#x201c;" horiz-adv-x="833" d="M143 950v230q0 229 195 282v-78q-57 -27 -74.5 -73.5t-17.5 -134.5h73v-226h-176zM510 950v230q0 229 195 282v-78q-57 -27 -75 -74t-18 -134h74v-226h-176z" />
<glyph unicode="&#x201d;" horiz-adv-x="833" d="M125 950v78q57 27 74.5 74t17.5 135h-74v225h176v-229q0 -230 -194 -283zM492 950v78q57 27 74.5 74t17.5 135h-74v225h176v-229q0 -230 -194 -283z" />
<glyph unicode="&#x201e;" horiz-adv-x="833" d="M125 -209q57 27 74.5 74t19.5 135h-74l-2 225h176v-229q0 -230 -194 -283v78zM492 -209q57 27 74.5 74t19.5 135h-74l-2 225h176v-229q0 -230 -194 -283v78z" />
<glyph unicode="&#x2022;" horiz-adv-x="1026" d="M145 731q0 152 106.5 259.5t258.5 107.5t259.5 -107.5t107.5 -259.5t-107 -258t-260 -106q-152 0 -258.5 106t-106.5 258z" />
<glyph unicode="&#x2026;" horiz-adv-x="2048" d="M252 225h176l2 -225h-176zM934 225h176l2 -225h-176zM1616 225h176l2 -225h-176z" />
<glyph unicode="&#x202f;" horiz-adv-x="397" />
<glyph unicode="&#x2039;" horiz-adv-x="645" d="M147 487v148l322 276v-157l-231 -193l231 -192v-158z" />
<glyph unicode="&#x203a;" horiz-adv-x="645" d="M172 211v158l231 192l-231 193v157l322 -276v-148z" />
<glyph unicode="&#x205f;" horiz-adv-x="497" />
<glyph unicode="&#x20ac;" d="M18 510l58 102h137q-9 108 0 219h-195l58 103h151q14 90 54.5 181t101.5 157q159 178 475 178q192 0 326 -64q93 -45 162 -131l-78 -122q-27 45 -60 77.5t-88 59.5q-101 53 -266 53q-248 0 -369 -139q-82 -94 -106 -250h780l-57 -103h-737q-9 -111 0 -219h624l-57 -102 h-557q24 -162 106 -266q119 -150 355 -150q169 0 305 72q103 57 176 149v-176q-70 -67 -156 -106q-70 -31 -161 -48.5t-173 -17.5q-299 0 -462 197q-55 67 -92.5 158t-49.5 188h-205z" />
<glyph unicode="&#x2122;" horiz-adv-x="2027" d="M84 1372v90h655v-90h-276v-754h-103v754h-276zM891 618v844h176l270 -684l262 684h177v-844h-103v754h-4l-305 -754h-61l-306 754h-4v-754h-102z" />
<glyph unicode="&#x25fc;" horiz-adv-x="1064" d="M0 0v1065h1065v-1065h-1065z" />
</font>
</defs>
</svg>
